<?xml version="1.0" encoding="UTF-8" standalone="no"?><!-- Created with Inkscape (http://www.inkscape.org/) -->

<svg width="150mm" height="50mm" viewBox="0 0 150 50" version="1.1" id="svg915" xml:space="preserve"
    xmlns:inkscape="http://www.inkscape.org/namespaces/inkscape"
    xmlns:sodipodi="http://sodipodi.sourceforge.net/DTD/sodipodi-0.dtd"
    xmlns="http://www.w3.org/2000/svg" xmlns:rdf="http://www.w3.org/1999/02/22-rdf-syntax-ns#"
    xmlns:cc="http://creativecommons.org/ns#" xmlns:dc="http://purl.org/dc/elements/1.1/"><defs
     id="defs909" />
    <sodipodi:namedview id="base" pagecolor="#ffffff" bordercolor="#666666" borderopacity="1.0"
        inkscape:pageopacity="0.0" inkscape:pageshadow="2" inkscape:zoom="1.979899"
        inkscape:cx="217.68787" inkscape:cy="81.317279" inkscape:document-units="mm"
        inkscape:current-layer="layer1" showgrid="false" inkscape:window-width="1920"
        inkscape:window-height="1051" inkscape:window-x="0" inkscape:window-y="0"
        inkscape:window-maximized="1" inkscape:showpageshadow="2" inkscape:pagecheckerboard="0"
        inkscape:deskcolor="#d1d1d1" />
    <metadata id="metadata912"><rdf:RDF><cc:Work
         rdf:about=""><dc:format>image/svg+xml</dc:format><dc:type
        rdf:resource="http://purl.org/dc/dcmitype/StillImage" /></cc:Work></rdf:RDF></metadata>
    <g inkscape:label="Ebene 1" inkscape:groupmode="layer" id="layer1" style="display:inline"><g
       aria-label="SNMP"
       transform="scale(0.95244318,1.0499314)"
       id="text1492"
       style="font-weight:bold;font-size:8.52749px;line-height:5.32968px;-inkscape-font-specification:'sans-serif Bold';letter-spacing:0px;word-spacing:0px;fill:#e8ffff;fill-opacity:0.992333;stroke:#5a0e42;stroke-width:0.213187"><g
         id="g486"
         transform="matrix(2.889983,0,0,2.6574992,-97.262865,-71.459765)"><g
           aria-label="   Cockpit"
           transform="matrix(1.0716796,0,0,0.93311474,24.46518,-105.47762)"
           id="text1465-3"
           style="font-weight:bold;font-size:8.93238px;line-height:6.69929px;-inkscape-font-specification:'sans-serif Bold';letter-spacing:0px;word-spacing:0px;fill:#ffffff;stroke:#5a0e42;stroke-width:0.267972"><path
             d="m 29.020104,156.85908 q -0.42306,0.24238 -0.881375,0.36577 -0.453908,0.1234 -0.947478,0.1234 -1.48071,0 -2.344457,-0.91663 -0.863748,-0.92104 -0.863748,-2.4943 0,-1.57766 0.863748,-2.49429 0.863747,-0.92103 2.344457,-0.92103 0.49357,0 0.947478,0.12339 0.458315,0.12339 0.881375,0.36577 v 1.36172 q -0.427466,-0.3217 -0.841713,-0.47153 -0.409839,-0.14984 -0.863747,-0.14984 -0.819679,0 -1.286808,0.58171 -0.467128,0.58171 -0.467128,1.6041 0,1.01799 0.467128,1.5997 0.467129,0.58171 1.286808,0.58171 0.453908,0 0.863747,-0.14984 0.414247,-0.14983 0.841713,-0.47153 z"
             style="font-stretch:semi-condensed;font-size:9.02528px;font-family:'DejaVu Sans';-inkscape-font-specification:'DejaVu Sans Bold Semi-Condensed'"
             id="path161-6" /><path
        d="m 32.329668,153.29392 q -0.471536,0 -0.718321,0.37899 -0.246785,0.37459 -0.246785,1.08409 0,0.70951 0.246785,1.0885 0.246785,0.37459 0.718321,0.37459 0.467128,0 0.709507,-0.37459 0.246785,-0.37899 0.246785,-1.0885 0,-0.7095 -0.246785,-1.08409 -0.242379,-0.37899 -0.709507,-0.37899 z m 0,-1.12816 q 1.150194,0 1.793598,0.68747 0.643404,0.68748 0.643404,1.90377 0,1.2163 -0.643404,1.90377 -0.643404,0.68748 -1.793598,0.68748 -1.145788,0 -1.798005,-0.68748 -0.647811,-0.68747 -0.647811,-1.90377 0,-1.21629 0.647811,-1.90377 0.652217,-0.68747 1.798005,-0.68747 z"
        style="font-stretch:semi-condensed;font-size:9.02528px;font-family:'DejaVu Sans';-inkscape-font-specification:'DejaVu Sans Bold Semi-Condensed'"
        id="path163-7" /><path
        d="m 39.385075,152.43899 v 1.2868 q -0.286447,-0.22034 -0.581708,-0.3261 -0.290854,-0.10577 -0.603742,-0.10577 -0.594928,0 -0.925443,0.38781 -0.330516,0.38339 -0.330516,1.07527 0,0.69188 0.330516,1.07969 0.330515,0.3834 0.925443,0.3834 0.334923,0 0.63459,-0.11018 0.299668,-0.11017 0.55086,-0.3261 v 1.29121 q -0.330516,0.13661 -0.674252,0.20272 -0.343736,0.0705 -0.687473,0.0705 -1.203077,0 -1.881735,-0.68307 -0.678659,-0.68747 -0.678659,-1.90818 0,-1.2207 0.678659,-1.90377 0.678658,-0.68747 1.881735,-0.68747 0.348143,0 0.687473,0.0705 0.339329,0.0661 0.674252,0.20272 z"
        style="font-stretch:semi-condensed;font-size:9.02528px;font-family:'DejaVu Sans';-inkscape-font-specification:'DejaVu Sans Bold Semi-Condensed'"
        id="path165-5" /><path
        d="M 40.610186,150.36335 H 42.0292 v 3.73262 l 1.63495,-1.81122 h 1.648171 l -2.168182,2.26513 2.340051,2.67057 H 43.761101 L 42.0292,155.16244 v 2.05801 h -1.419014 z"
        style="font-stretch:semi-condensed;font-size:9.02528px;font-family:'DejaVu Sans';-inkscape-font-specification:'DejaVu Sans Bold Semi-Condensed'"
        id="path167-3" /><path
        d="m 47.427622,156.50653 v 2.59125 h -1.419014 v -6.81303 h 1.419014 v 0.72272 q 0.29526,-0.43187 0.652217,-0.63459 0.356957,-0.20712 0.819679,-0.20712 0.819679,0 1.348504,0.72714 0.528825,0.72272 0.528825,1.8641 0,1.14138 -0.528825,1.86852 -0.528825,0.72273 -1.348504,0.72273 -0.462722,0 -0.819679,-0.20272 -0.356957,-0.20712 -0.652217,-0.639 z m 0.943071,-3.19498 q -0.453908,0 -0.700693,0.37458 -0.242378,0.37018 -0.242378,1.07087 0,0.7007 0.242378,1.07528 0.246785,0.37018 0.700693,0.37018 0.458315,0 0.696286,-0.37018 0.242378,-0.37018 0.242378,-1.07528 0,-0.7051 -0.242378,-1.07527 -0.237971,-0.37018 -0.696286,-0.37018 z"
        style="font-stretch:semi-condensed;font-size:9.02528px;font-family:'DejaVu Sans';-inkscape-font-specification:'DejaVu Sans Bold Semi-Condensed'"
        id="path169-5" /><path
        d="m 51.821276,152.28475 h 1.419014 v 4.9357 h -1.419014 z m 0,-1.9214 h 1.419014 v 1.28681 h -1.419014 z"
        style="font-stretch:semi-condensed;font-size:9.02528px;font-family:'DejaVu Sans';-inkscape-font-specification:'DejaVu Sans Bold Semi-Condensed'"
        id="path171-6" /><path
        d="m 56.153235,150.88336 v 1.40139 h 1.463082 v 1.12816 h -1.463082 v 2.09326 q 0,0.34374 0.118985,0.46713 0.123393,0.11899 0.489164,0.11899 h 0.731541 v 1.12816 h -1.216298 q -0.841713,0 -1.194263,-0.38781 -0.35255,-0.39221 -0.35255,-1.32647 v -2.09326 h -0.7051 v -1.12816 h 0.7051 v -1.40139 z"
        style="font-stretch:semi-condensed;font-size:9.02528px;font-family:'DejaVu Sans';-inkscape-font-specification:'DejaVu Sans Bold Semi-Condensed'"
        id="path173-2" /></g><path
        d="m 56.1815,29.09648 v 1.31576 q -0.512149,-0.22901 -0.999315,-0.34559 -0.487167,-0.11659 -0.920203,-0.11659 -0.574606,0 -0.849418,0.15822 -0.274812,0.15823 -0.274812,0.49133 0,0.24983 0.183208,0.3914 0.187372,0.13741 0.674538,0.23734 l 0.682865,0.1374 q 1.03679,0.2082 1.47399,0.6329 0.4372,0.42471 0.4372,1.20751 0,1.02846 -0.61208,1.53228 -0.607917,0.49966 -1.861225,0.49966 -0.591261,0 -1.186686,-0.11242 -0.595426,-0.11242 -1.190851,-0.33311 v -1.35324 q 0.595425,0.31645 1.149212,0.47884 0.557951,0.15823 1.074264,0.15823 0.524641,0 0.803616,-0.17488 0.278976,-0.17488 0.278976,-0.49966 0,-0.29147 -0.191536,-0.44969 -0.187371,-0.15823 -0.75365,-0.28314 l -0.620408,-0.13741 q -0.932694,-0.19986 -1.365731,-0.63706 -0.428873,-0.4372 -0.428873,-1.17836 0,-0.92853 0.599589,-1.42819 0.59959,-0.49966 1.723819,-0.49966 0.512149,0 1.053445,0.0791 0.541296,0.075 1.120066,0.22901 z"
        id="path176-9"
        style="font-weight:bold;font-size:8.52749px;line-height:5.32968px;-inkscape-font-specification:'sans-serif Bold';letter-spacing:0px;word-spacing:0px;fill:#e8ffff;fill-opacity:0.992333;stroke:#5a0e42;stroke-width:0.213187" /><path
        d="m 57.996922,28.90078 h 1.79044 l 2.26095,4.26374 v -4.26374 h 1.519792 v 6.21657 h -1.790439 l -2.260951,-4.26374 v 4.26374 h -1.519792 z"
        id="path178-1"
        style="font-weight:bold;font-size:8.52749px;line-height:5.32968px;-inkscape-font-specification:'sans-serif Bold';letter-spacing:0px;word-spacing:0px;fill:#e8ffff;fill-opacity:0.992333;stroke:#5a0e42;stroke-width:0.213187" /><path
        d="m 65.133698,28.90078 h 2.040269 l 1.415696,3.32688 1.424024,-3.32688 h 2.036105 v 6.21657 h -1.515628 v -4.54688 l -1.432352,3.35187 h -1.01597 L 66.65349,30.57047 v 4.54688 h -1.519792 z"
        id="path180-2"
        style="font-weight:bold;font-size:8.52749px;line-height:5.32968px;-inkscape-font-specification:'sans-serif Bold';letter-spacing:0px;word-spacing:0px;fill:#e8ffff;fill-opacity:0.992333;stroke:#5a0e42;stroke-width:0.213187" /><path
        d="m 73.619549,28.90078 h 2.660677 q 1.186687,0 1.819587,0.5288 0.637063,0.52464 0.637063,1.49897 0,0.9785 -0.637063,1.5073 -0.6329,0.52465 -1.819587,0.52465 h -1.057608 v 2.15685 h -1.603069 z m 1.603069,1.1617 v 1.73631 h 0.886892 q 0.466347,0 0.720339,-0.22484 0.253993,-0.22901 0.253993,-0.6454 0,-0.41638 -0.253993,-0.64122 -0.253992,-0.22485 -0.720339,-0.22485 z"
        id="path182-7"
        style="font-weight:bold;font-size:8.52749px;line-height:5.32968px;-inkscape-font-specification:'sans-serif Bold';letter-spacing:0px;word-spacing:0px;fill:#e8ffff;fill-opacity:0.992333;stroke:#5a0e42;stroke-width:0.213187" /></g></g>
        <g id="g53" transform="matrix(0.58826082,0,0,0.61191199,12.169558,5.8599887)"><g
         id="layer4"
         inkscape:label="Ebene 3"
         style="display:inline"><rect
           style="opacity:1;fill:#5a0e42;fill-opacity:1;stroke:#5a0e42;stroke-width:1;stroke-dasharray:none;stroke-opacity:1"
           id="rect873"
           width="57.079021"
           height="56.665401"
           x="-8.7907362"
           y="-0.12794973" /></g>
            <g inkscape:label="Ebene 1" id="layer1-6" style="display:inline;opacity:0.865"
                transform="translate(-47.669494,-69.730776)" />
            <g id="layer2" inkscape:label="Ebene 2" transform="translate(-47.669494,-69.730776)"
                style="display:inline"><g
           id="g647"
           transform="matrix(1.2816001,0,0,1.3760257,-19.096667,-26.765894)"><g
             id="g4532"
             transform="matrix(0.61106153,0,0,0.61106153,53.908016,93.288344)"
             style="display:inline;opacity:0.865;fill:#000000"><path
               id="path4518"
               d="M 0,0 H 24 V 24 H 0 Z"
               inkscape:connector-curvature="0"
               style="fill:none" /><path id="path4520"
                d="M 5,2 C 5,1.45 4.55,1 4,1 3.45,1 3,1.45 3,2 V 6 H 1 v 6 H 7 V 6 H 5 Z m 4,14 c 0,1.3 0.84,2.4 2,2.82 V 23 h 2 V 18.82 C 14.16,18.41 15,17.31 15,16 V 14 H 9 Z m -8,0 c 0,1.3 0.84,2.4 2,2.82 V 23 H 5 V 18.82 C 6.16,18.4 7,17.3 7,16 V 14 H 1 Z M 21,6 V 2 C 21,1.45 20.55,1 20,1 19.45,1 19,1.45 19,2 v 4 h -2 v 6 h 6 V 6 Z M 13,2 C 13,1.45 12.55,1 12,1 11.45,1 11,1.45 11,2 V 6 H 9 v 6 h 6 V 6 h -2 z m 4,14 c 0,1.3 0.84,2.4 2,2.82 V 23 h 2 v -4.18 c 1.16,-0.41 2,-1.51 2,-2.82 v -2 h -6 z"
                inkscape:connector-curvature="0" style="fill:#ffffff;fill-opacity:1" /></g><g
                id="g4548" transform="matrix(1.3225252,0,0,1.1721861,52.321301,69.730776)"
                style="opacity:0.955"><path
               id="path4534"
               d="M 0,0 H 24 V 24 H 0 Z"
               inkscape:connector-curvature="0"
               style="fill:none" />
                <path id="path4536"
                    d="M 12,7 V 3 H 2 V 21 H 22 V 7 Z M 6,19 H 4 V 17 H 6 Z M 6,15 H 4 V 13 H 6 Z M 6,11 H 4 V 9 H 6 Z M 6,7 H 4 V 5 h 2 z m 4,12 H 8 v -2 h 2 z m 0,-4 H 8 v -2 h 2 z m 0,-4 H 8 V 9 h 2 z M 10,7 H 8 V 5 h 2 z m 10,12 h -8 v -2 h 2 v -2 h -2 v -2 h 2 V 11 H 12 V 9 h 8 z m -2,-8 h -2 v 2 h 2 z m 0,4 h -2 v 2 h 2 z"
                    inkscape:connector-curvature="0" style="fill:#ffffff;fill-opacity:1" /></g></g>
                <text xml:space="preserve"
                    style="font-style:normal;font-weight:normal;font-size:10.5833px;line-height:6.61458px;font-family:sans-serif;letter-spacing:0px;word-spacing:0px;display:none;opacity:0.955;fill:#c7c7c7;fill-opacity:1;stroke:#ffffff;stroke-width:0.1;stroke-miterlimit:4;stroke-dasharray:none;stroke-opacity:1"
                    x="46.242294" y="116.33865" id="text4552"
                    inkscape:export-filename="/home/worker/lettering_logo.png"
                    inkscape:export-xdpi="179" inkscape:export-ydpi="179"><tspan
             sodipodi:role="line"
             id="tspan4550"
             x="0"
             y="0"
             style="font-style:normal;font-variant:normal;font-weight:normal;font-stretch:normal;font-family:'DejaVu Sans';-inkscape-font-specification:'DejaVu Sans';fill:#c7c7c7;fill-opacity:1;stroke:#000000;stroke-width:0.1;stroke-miterlimit:4;stroke-dasharray:none;stroke-opacity:1">  SNMP</tspan>
                    <tspan sodipodi:role="line" x="0" y="0"
                        style="font-style:normal;font-variant:normal;font-weight:normal;font-stretch:normal;font-family:'DejaVu Sans';-inkscape-font-specification:'DejaVu Sans';fill:#c7c7c7;fill-opacity:1;stroke:#000000;stroke-width:0.1;stroke-miterlimit:4;stroke-dasharray:none;stroke-opacity:1"
                        id="tspan5111">Cockpit</tspan></text></g></g></g></svg>
