<?xml version="1.0" encoding="UTF-8" standalone="no"?>
<!-- Created with Inkscape (http://www.inkscape.org/) -->

<svg
   xmlns:dc="http://purl.org/dc/elements/1.1/"
   xmlns:cc="http://creativecommons.org/ns#"
   xmlns:rdf="http://www.w3.org/1999/02/22-rdf-syntax-ns#"
   xmlns:svg="http://www.w3.org/2000/svg"
   xmlns="http://www.w3.org/2000/svg"
   xmlns:xlink="http://www.w3.org/1999/xlink"
   xmlns:sodipodi="http://sodipodi.sourceforge.net/DTD/sodipodi-0.dtd"
   xmlns:inkscape="http://www.inkscape.org/namespaces/inkscape"
   width="39.487774mm"
   height="56.596542mm"
   viewBox="0 0 39.487774 56.596542"
   version="1.1"
   id="svg8"
   inkscape:export-filename="/home/worker/rastergrafik.png"
   inkscape:export-xdpi="179.83"
   inkscape:export-ydpi="179.83"
   inkscape:version="0.92.4 (unknown)"
   sodipodi:docname="logo.svg">
  <defs
     id="defs2">
    <linearGradient
       inkscape:collect="always"
       id="linearGradient829">
      <stop
         style="stop-color:#c7c7c7;stop-opacity:1;"
         offset="0"
         id="stop825" />
      <stop
         style="stop-color:#c7c7c7;stop-opacity:0;"
         offset="1"
         id="stop827" />
    </linearGradient>
    <linearGradient
       inkscape:collect="always"
       xlink:href="#linearGradient829"
       id="linearGradient831"
       x1="47.669494"
       y1="117.94191"
       x2="87.157268"
       y2="117.94191"
       gradientUnits="userSpaceOnUse" />
  </defs>
  <sodipodi:namedview
     id="base"
     pagecolor="#ffffff"
     bordercolor="#666666"
     borderopacity="1.0"
     inkscape:pageopacity="0.0"
     inkscape:pageshadow="2"
     inkscape:zoom="7.9195959"
     inkscape:cx="48.014917"
     inkscape:cy="96.064526"
     inkscape:document-units="mm"
     inkscape:current-layer="layer2"
     showgrid="false"
     inkscape:window-width="3840"
     inkscape:window-height="1995"
     inkscape:window-x="0"
     inkscape:window-y="0"
     inkscape:window-maximized="1" />
  <metadata
     id="metadata5">
    <rdf:RDF>
      <cc:Work
         rdf:about="">
        <dc:format>image/svg+xml</dc:format>
        <dc:type
           rdf:resource="http://purl.org/dc/dcmitype/StillImage" />
        <dc:title />
      </cc:Work>
    </rdf:RDF>
  </metadata>
  <g
     inkscape:label="Ebene 1"
     inkscape:groupmode="layer"
     id="layer1"
     style="opacity:0.865"
     transform="translate(-47.669494,-69.730776)">
    <g
       id="g4532"
       transform="matrix(0.61106151,0,0,0.61106151,53.908016,93.288344)"
       style="">
      <path
         id="path4518"
         d="M 0,0 H 24 V 24 H 0 Z"
         inkscape:connector-curvature="0"
         style="fill:none" />
      <path
         id="path4520"
         d="M 5,2 C 5,1.45 4.55,1 4,1 3.45,1 3,1.45 3,2 V 6 H 1 v 6 H 7 V 6 H 5 Z m 4,14 c 0,1.3 0.84,2.4 2,2.82 V 23 h 2 V 18.82 C 14.16,18.41 15,17.31 15,16 V 14 H 9 Z m -8,0 c 0,1.3 0.84,2.4 2,2.82 V 23 H 5 V 18.82 C 6.16,18.4 7,17.3 7,16 V 14 H 1 Z M 21,6 V 2 C 21,1.45 20.55,1 20,1 19.45,1 19,1.45 19,2 v 4 h -2 v 6 h 6 V 6 Z M 13,2 C 13,1.45 12.55,1 12,1 11.45,1 11,1.45 11,2 V 6 H 9 v 6 h 6 V 6 h -2 z m 4,14 c 0,1.3 0.84,2.4 2,2.82 V 23 h 2 v -4.18 c 1.16,-0.41 2,-1.51 2,-2.82 v -2 h -6 z"
         inkscape:connector-curvature="0"
         style="fill:#ffffff;fill-opacity:1" />
    </g>
  </g>
  <g
     inkscape:groupmode="layer"
     id="layer2"
     inkscape:label="Ebene 2"
     transform="translate(-47.669494,-69.730776)">
    <g
       id="g4548"
       transform="matrix(1.3225252,0,0,1.1721861,52.321301,69.730776)"
       style="opacity:0.95499998">
      <path
         id="path4534"
         d="M 0,0 H 24 V 24 H 0 Z"
         inkscape:connector-curvature="0"
         style="fill:none" />
      <path
         id="path4536"
         d="M 12,7 V 3 H 2 V 21 H 22 V 7 Z M 6,19 H 4 V 17 H 6 Z M 6,15 H 4 V 13 H 6 Z M 6,11 H 4 V 9 H 6 Z M 6,7 H 4 V 5 h 2 z m 4,12 H 8 v -2 h 2 z m 0,-4 H 8 v -2 h 2 z m 0,-4 H 8 V 9 h 2 z M 10,7 H 8 V 5 h 2 z m 10,12 h -8 v -2 h 2 v -2 h -2 v -2 h 2 V 11 H 12 V 9 h 8 z m -2,-8 h -2 v 2 h 2 z m 0,4 h -2 v 2 h 2 z"
         inkscape:connector-curvature="0"
         style="fill:#ffffff;fill-opacity:1" />
    </g>
    <text
       xml:space="preserve"
       style="font-style:normal;font-weight:normal;font-size:10.58333302px;line-height:6.61458302px;font-family:sans-serif;letter-spacing:0px;word-spacing:0px;opacity:0.95499998;fill:url(#linearGradient831);fill-opacity:1;stroke:#000000;stroke-width:0.1;stroke-miterlimit:4;stroke-dasharray:none;stroke-opacity:1"
       x="47.719494"
       y="117.46132"
       id="text4552"
       inkscape:export-filename="/home/worker/lettering_logo.png"
       inkscape:export-xdpi="179"
       inkscape:export-ydpi="179"><tspan
         sodipodi:role="line"
         id="tspan4550"
         x="47.719494"
         y="117.46132"
         style="font-style:normal;font-variant:normal;font-weight:normal;font-stretch:normal;font-family:'DejaVu Sans';-inkscape-font-specification:'DejaVu Sans';fill:#5a0e42;fill-opacity:0;stroke:#000000;stroke-width:0.1;stroke-miterlimit:4;stroke-dasharray:none;stroke-opacity:1">  SNMP</tspan><tspan
         sodipodi:role="line"
         x="47.719494"
         y="124.0759"
         style="font-style:normal;font-variant:normal;font-weight:normal;font-stretch:normal;font-family:'DejaVu Sans';-inkscape-font-specification:'DejaVu Sans';fill:#5a0e42;fill-opacity:0;stroke:#000000;stroke-width:0.1;stroke-miterlimit:4;stroke-dasharray:none;stroke-opacity:1"
         id="tspan5111">Cockpit</tspan></text>
  </g>
</svg>
